<svg xmlns="http://www.w3.org/2000/svg" xmlns:svg="http://www.w3.org/2000/svg" id="svg14" width="2222" height="2500" preserveAspectRatio="xMinYMin meet" version="1.1" viewBox="0 0 256 288"><metadata id="metadata20"/><g id="g28" transform="matrix(0.87768883,0,0,0.87768883,15.839267,17.720304)" style="stroke-width:1.13935"><path id="path2" fill="#5c8dbc" d="m 255.569,84.72 c -0.002,-4.83 -1.035,-9.098 -3.124,-12.761 -2.052,-3.602 -5.125,-6.621 -9.247,-9.008 C 209.173,43.332 175.115,23.773 141.101,4.134 131.931,-1.16 123.04,-0.967 113.938,4.403 100.395,12.39 32.59,51.237 12.385,62.94 4.064,67.757 0.015,75.129 0.013,84.711 0,124.166 0.013,163.62 0,203.076 c 0.002,4.724 0.991,8.909 2.988,12.517 2.053,3.711 5.169,6.813 9.386,9.254 20.206,11.703 88.02,50.547 101.56,58.536 9.106,5.373 17.997,5.565 27.17,0.269 34.015,-19.64 68.075,-39.198 102.105,-58.817 4.217,-2.44 7.333,-5.544 9.386,-9.252 1.994,-3.608 2.985,-7.793 2.987,-12.518 0,0 0,-78.889 -0.013,-118.345" style="stroke-width:1.32043"/><path id="path4" fill="#1a4674" d="M 128.182,143.509 2.988,215.593 c 2.053,3.711 5.169,6.813 9.386,9.254 20.206,11.703 88.02,50.547 101.56,58.536 9.106,5.373 17.997,5.565 27.17,0.269 34.015,-19.64 68.075,-39.198 102.105,-58.817 4.217,-2.44 7.333,-5.544 9.386,-9.252 L 128.182,143.509" style="stroke-width:1.32043"/><path id="path6" fill="#1a4674" d="m 91.101,164.861 c 7.285,12.718 20.98,21.296 36.69,21.296 15.807,0 29.58,-8.687 36.828,-21.541 l -36.437,-21.107 -37.081,21.352" style="stroke-width:1.32043"/><path id="path8" fill="#1b598e" d="m 255.569,84.72 c -0.002,-4.83 -1.035,-9.098 -3.124,-12.761 l -124.263,71.55 124.413,72.074 c 1.994,-3.608 2.985,-7.793 2.987,-12.518 0,0 0,-78.889 -0.013,-118.345" style="stroke-width:1.32043"/><path id="path10" fill="#fff" d="m 248.728,148.661 h -9.722 v 9.724 h -9.724 v -9.724 h -9.721 v -9.721 h 9.721 v -9.722 h 9.724 v 9.722 h 9.722 v 9.721 m -35.475,0 h -9.721 v 9.724 h -9.722 v -9.724 h -9.722 v -9.721 h 9.722 v -9.722 h 9.722 v 9.722 h 9.721 v 9.721" style="stroke-width:1.32043"/><path id="path12" fill="#fff" d="m 164.619,164.616 c -7.248,12.854 -21.021,21.541 -36.828,21.541 -15.71,0 -29.405,-8.578 -36.69,-21.296 a 42.062,42.062 0 0 1 -5.574,-20.968 c 0,-23.341 18.923,-42.263 42.264,-42.263 15.609,0 29.232,8.471 36.553,21.059 l 36.941,-21.272 C 186.602,76.071 159.189,59.019 127.791,59.019 c -46.876,0 -84.875,38 -84.875,84.874 0,15.378 4.091,29.799 11.241,42.238 14.646,25.48 42.137,42.637 73.634,42.637 31.555,0 59.089,-17.226 73.714,-42.781 l -36.886,-21.371" style="stroke-width:1.32043"/></g></svg>