<svg xmlns="http://www.w3.org/2000/svg" xmlns:svg="http://www.w3.org/2000/svg" style="enable-background:new 0 0 109.19 122.88" id="Layer_1" x="0" y="0" version="1.1" viewBox="0 0 109.19 122.88" xml:space="preserve"><metadata id="metadata19"/><style id="style2" type="text/css">.st0{fill:#3949ab}.st0,.st1,.st2,.st3{fill-rule:evenodd;clip-rule:evenodd}.st1{fill:#283593}.st2{fill:#5c6bc0}.st3{fill:#fff}</style><g style="stroke-width:1.12567" id="g12" transform="matrix(0.88836301,0,0,0.88836301,6.0903809,6.8589753)"><path style="stroke-width:1.12567" id="path4" d="M 107.81,92.16 C 108.67,90.68 109.2,89 109.2,87.5 V 35.38 c 0,-1.5 -0.53,-3.17 -1.39,-4.66 L 54.6,61.44 Z" class="st0"/><path style="stroke-width:1.12567" id="path6" d="m 59.33,121.75 45.14,-26.06 c 1.3,-0.75 2.48,-2.05 3.34,-3.53 L 54.6,61.44 1.39,92.16 c 0.86,1.48 2.04,2.78 3.34,3.53 l 45.14,26.06 c 2.6,1.5 6.85,1.5 9.46,0 z" class="st1"/><path style="stroke-width:1.12567" id="path8" d="m 107.81,30.72 c -0.86,-1.48 -2.04,-2.78 -3.34,-3.53 L 59.33,1.13 c -2.6,-1.5 -6.86,-1.5 -9.46,0 L 4.73,27.19 C 2.13,28.69 0,32.38 0,35.38 V 87.5 c 0,1.5 0.53,3.17 1.39,4.66 L 54.6,61.44 Z" class="st2"/><path style="stroke-width:1.12567" id="path10" d="m 54.6,97.84 c -20.07,0 -36.4,-16.33 -36.4,-36.4 0,-20.07 16.33,-36.4 36.4,-36.4 12.95,0 25.03,6.97 31.52,18.19 l -15.75,9.12 c -3.25,-5.62 -9.29,-9.1 -15.77,-9.1 -10.04,0 -18.2,8.16 -18.2,18.2 0,10.03 8.16,18.2 18.2,18.2 6.48,0 12.52,-3.49 15.77,-9.1 l 15.75,9.12 C 79.63,90.87 67.55,97.84 54.6,97.84 Z" class="st3"/></g></svg>