<?xml version="1.0" encoding="UTF-8" standalone="no"?>
<svg
   xmlns:dc="http://purl.org/dc/elements/1.1/"
   xmlns:cc="http://creativecommons.org/ns#"
   xmlns:rdf="http://www.w3.org/1999/02/22-rdf-syntax-ns#"
   xmlns:svg="http://www.w3.org/2000/svg"
   xmlns="http://www.w3.org/2000/svg"
   xmlns:sodipodi="http://sodipodi.sourceforge.net/DTD/sodipodi-0.dtd"
   xmlns:inkscape="http://www.inkscape.org/namespaces/inkscape"
   version="1.1"
   id="Layer_1"
   x="0px"
   y="0px"
   viewBox="0 0 109.19 122.88"
   style="enable-background:new 0 0 109.19 122.88"
   xml:space="preserve"
   sodipodi:docname="c-program.svg"
   inkscape:version="1.0.2-2 (e86c870879, 2021-01-15)"><metadata
     id="metadata19"><rdf:RDF><cc:Work
         rdf:about=""><dc:format>image/svg+xml</dc:format><dc:type
           rdf:resource="http://purl.org/dc/dcmitype/StillImage" /></cc:Work></rdf:RDF></metadata><defs
     id="defs17" /><sodipodi:namedview
     pagecolor="#ffffff"
     bordercolor="#666666"
     borderopacity="1"
     objecttolerance="10"
     gridtolerance="10"
     guidetolerance="10"
     inkscape:pageopacity="0"
     inkscape:pageshadow="2"
     inkscape:window-width="1920"
     inkscape:window-height="1027"
     id="namedview15"
     showgrid="false"
     inkscape:zoom="3.499349"
     inkscape:cx="28.169037"
     inkscape:cy="69.647214"
     inkscape:window-x="-8"
     inkscape:window-y="-8"
     inkscape:window-maximized="1"
     inkscape:current-layer="Layer_1" /><style
     type="text/css"
     id="style2">.st0{fill-rule:evenodd;clip-rule:evenodd;fill:#3949AB;} .st1{fill-rule:evenodd;clip-rule:evenodd;fill:#283593;} .st2{fill-rule:evenodd;clip-rule:evenodd;fill:#5C6BC0;} .st3{fill-rule:evenodd;clip-rule:evenodd;fill:#FFFFFF;}</style><g
     id="g12"
     transform="matrix(0.88836301,0,0,0.88836301,6.0903809,6.8589753)"
     style="stroke-width:1.12567"><path
       class="st0"
       d="M 107.81,92.16 C 108.67,90.68 109.2,89 109.2,87.5 V 35.38 c 0,-1.5 -0.53,-3.17 -1.39,-4.66 L 54.6,61.44 Z"
       id="path4"
       style="stroke-width:1.12567" /><path
       class="st1"
       d="m 59.33,121.75 45.14,-26.06 c 1.3,-0.75 2.48,-2.05 3.34,-3.53 L 54.6,61.44 1.39,92.16 c 0.86,1.48 2.04,2.78 3.34,3.53 l 45.14,26.06 c 2.6,1.5 6.85,1.5 9.46,0 z"
       id="path6"
       style="stroke-width:1.12567" /><path
       class="st2"
       d="m 107.81,30.72 c -0.86,-1.48 -2.04,-2.78 -3.34,-3.53 L 59.33,1.13 c -2.6,-1.5 -6.86,-1.5 -9.46,0 L 4.73,27.19 C 2.13,28.69 0,32.38 0,35.38 V 87.5 c 0,1.5 0.53,3.17 1.39,4.66 L 54.6,61.44 Z"
       id="path8"
       style="stroke-width:1.12567" /><path
       class="st3"
       d="m 54.6,97.84 c -20.07,0 -36.4,-16.33 -36.4,-36.4 0,-20.07 16.33,-36.4 36.4,-36.4 12.95,0 25.03,6.97 31.52,18.19 l -15.75,9.12 c -3.25,-5.62 -9.29,-9.1 -15.77,-9.1 -10.04,0 -18.2,8.16 -18.2,18.2 0,10.03 8.16,18.2 18.2,18.2 6.48,0 12.52,-3.49 15.77,-9.1 l 15.75,9.12 C 79.63,90.87 67.55,97.84 54.6,97.84 Z"
       id="path10"
       style="stroke-width:1.12567" /></g></svg>
