<svg xmlns="http://www.w3.org/2000/svg" xmlns:xlink="http://www.w3.org/1999/xlink" id="Capa_1" version="1.1" viewBox="0 0 128 128" xml:space="preserve" style="enable-background:new 0 0 128 128"><style type="text/css">.st0{fill:#21a365}.st1{fill:#107c41}.st2{fill:#185b37}.st3{fill:#33c481}.st4{fill:#17864c}.st5{fill:#fff}.st48{opacity:.2}</style><rect width="49.3" height="29.8" x="78.7" y="34.2" class="st0"/><rect width="49.3" height="29.8" x="78.7" y="64" class="st1"/><rect width="49.2" height="29.8" x="29.5" y="34.2" class="st1"/><path d="M78.7,93.8V64H29.6v29.8v4.3v19.6c0,3.2,2.6,5.8,5.8,5.8h86.7c3.2,0,5.8-2.6,5.8-5.8V93.8H78.7z" class="st2"/><path d="M122.1,4.5H78.6v29.8h49.4V10.3C127.9,7.1,125.3,4.5,122.1,4.5z" class="st3"/><path d="M78.7,4.5H35.5c-3.2,0-5.8,2.6-5.8,5.8v23.9h49.1V4.5z" class="st0"/><path d="M59.5,96.5h-53c-3.5,0-6.4-2.9-6.4-6.4V37.9c0-3.5,2.9-6.4,6.4-6.4h53c3.5,0,6.4,2.9,6.4,6.4v52.2 C65.9,93.6,63.1,96.5,59.5,96.5z" class="st4"/><g><path d="M40.5,82.4l-3.9-7.1c-1.6-2.8-2.6-4.7-3.7-6.8h-0.1c-0.9,2.1-1.8,4-3.3,6.8L26,82.4h-7.6l10.8-18.1L18.7,46.5 h7.7l3.9,7.4c1.2,2.2,2.1,4,3,6h0.2c1-2.2,1.7-3.8,2.9-6l3.9-7.4h7.6L37.2,64l11.1,18.4H40.5z" class="st5"/></g><path d="M66.7,37.3c0,0.2,0,0.4,0,0.6v52.2c0,3.5-2.9,6.4-6.4,6.4H30.4v5.7h35.2c3.5,0,6.4-2.9,6.4-6.4V43.6 C72.1,40.4,69.7,37.7,66.7,37.3z" class="st48"/></svg>