<svg xmlns="http://www.w3.org/2000/svg" xmlns:svg="http://www.w3.org/2000/svg" id="svg14" version="1.1" viewBox="0 0 512 512"><metadata id="metadata20"/><title id="title2">HTML5 Logo</title><g id="g27" transform="matrix(1.0275555,0,0,1.0275555,22.360919,34.457765)" style="stroke-width:.973183"><path id="path4" d="m 103.0661,0 h 19.37042 V 19.201985 H 140.291 V 0 h 19.37042 V 58.11127 H 140.291 V 38.740847 H 122.60496 V 58.11127 H 103.0661 m 82.19797,-38.740847 h -17.0965 V 0 h 53.64765 V 19.370423 H 204.63449 V 58.11127 H 185.26407 M 230.32136,0 h 20.29683 L 263.08264,20.465273 275.54709,0 h 20.29683 V 58.11127 H 276.4735 V 29.308293 L 262.9142,50.194662 249.35491,29.308293 V 58.11127 H 230.32136 M 305.44491,0 h 19.37043 v 38.909285 h 27.45547 V 58.11127 h -46.8259" style="stroke-width:.973183"/><path id="path6" fill="#e44d26" d="M 102.39235,396.67258 74.6,84.724547 h 305.54737 l -27.79234,311.779593 -125.234,34.69833" style="stroke-width:.973183"/><path id="path8" fill="#f16529" d="M 227.37369,404.67341 V 110.32719 h 124.89712 l -23.83404,266.13278" style="stroke-width:.973183"/><path id="path10" fill="#ebebeb" d="m 131.36376,148.47851 h 96.00993 v 38.23553 h -54.06875 l 3.53721,39.16194 h 50.53154 v 38.15131 h -85.56674 m 1.68438,19.20199 h 38.40397 l 2.69502,30.57158 42.78337,11.45381 v 39.91992 l -78.49233,-21.897" style="stroke-width:.973183"/><path id="path12" fill="#fff" d="m 323.04673,148.47851 h -95.84148 v 38.23553 h 92.30428 m -3.45299,39.16194 h -88.85129 v 38.23553 h 47.16277 l -4.46362,49.68935 -42.69915,11.45381 v 39.75148 l 78.32388,-21.72856" style="stroke-width:.973183"/></g></svg>