<svg xmlns="http://www.w3.org/2000/svg" xmlns:svg="http://www.w3.org/2000/svg" id="svg6" version="1.1" viewBox="0 0 630 630"><metadata id="metadata12"/><g id="g10" transform="translate(7.6293945e-6,-8.0581284)"><rect id="rect2" width="536.233" height="552.349" x="46.884" y="46.884" fill="#f7df1e" style="stroke-width:.999996"/><path id="path4" d="m 407.09581,478.40844 c 10.80126,18.16614 24.85396,31.51895 49.70791,31.51895 20.87902,0 34.21674,-10.74888 34.21674,-25.60092 0,-17.79791 -13.70372,-24.1017 -36.68511,-34.45606 l -12.59721,-5.56732 c -36.36168,-15.95674 -60.51768,-35.94651 -60.51768,-78.20558 0,-38.92744 28.79484,-68.5614 73.79582,-68.5614 32.03777,0 55.07023,11.48536 71.66791,41.55767 l -39.23861,25.95164 c -8.6393,-15.95674 -17.95953,-22.243 -32.4293,-22.243 -14.75916,0 -24.11344,9.64418 -24.11344,22.243 0,15.57097 9.36279,21.87476 30.98232,31.51895 l 12.59721,5.55856 c 42.81349,18.91137 66.98651,38.19097 66.98651,81.53721 0,46.73046 -35.63818,72.33139 -83.49907,72.33139 -46.79693,0 -77.03023,-22.9707 -91.82344,-53.07809 z m -178.00367,4.4977 c 7.91581,14.46627 15.11665,26.69685 32.4293,26.69685 16.55512,0 26.99889,-6.67201 26.99889,-32.61488 v -176.4886 h 50.38883 v 177.19 c 0,53.74442 -30.59079,78.20558 -75.24279,78.20558 -40.34511,0 -63.70953,-21.50653 -75.59177,-47.40994 z" style="stroke-width:.999996"/></g></svg>