<?xml version="1.0" encoding="UTF-8" standalone="no"?>
<svg
   xmlns:dc="http://purl.org/dc/elements/1.1/"
   xmlns:cc="http://creativecommons.org/ns#"
   xmlns:rdf="http://www.w3.org/1999/02/22-rdf-syntax-ns#"
   xmlns:svg="http://www.w3.org/2000/svg"
   xmlns="http://www.w3.org/2000/svg"
   xmlns:sodipodi="http://sodipodi.sourceforge.net/DTD/sodipodi-0.dtd"
   xmlns:inkscape="http://www.inkscape.org/namespaces/inkscape"
   viewBox="0 0 630 630"
   version="1.1"
   id="svg6"
   sodipodi:docname="javascript.svg"
   inkscape:version="1.0.2-2 (e86c870879, 2021-01-15)">
  <metadata
     id="metadata12">
    <rdf:RDF>
      <cc:Work
         rdf:about="">
        <dc:format>image/svg+xml</dc:format>
        <dc:type
           rdf:resource="http://purl.org/dc/dcmitype/StillImage" />
      </cc:Work>
    </rdf:RDF>
  </metadata>
  <defs
     id="defs10" />
  <sodipodi:namedview
     pagecolor="#ffffff"
     bordercolor="#666666"
     borderopacity="1"
     objecttolerance="10"
     gridtolerance="10"
     guidetolerance="10"
     inkscape:pageopacity="0"
     inkscape:pageshadow="2"
     inkscape:window-width="1920"
     inkscape:window-height="1027"
     id="namedview8"
     showgrid="false"
     inkscape:zoom="0.68253968"
     inkscape:cx="685.45571"
     inkscape:cy="531.93176"
     inkscape:window-x="-8"
     inkscape:window-y="-8"
     inkscape:window-maximized="1"
     inkscape:current-layer="svg6"
     inkscape:document-rotation="0" />
  <g
     id="g10"
     transform="translate(7.6293945e-6,-8.0581284)">
    <rect
       width="536.23254"
       height="552.34882"
       fill="#f7df1e"
       id="rect2"
       x="46.88372"
       y="46.88372"
       style="stroke-width:0.999996" />
    <path
       d="m 407.09581,478.40844 c 10.80126,18.16614 24.85396,31.51895 49.70791,31.51895 20.87902,0 34.21674,-10.74888 34.21674,-25.60092 0,-17.79791 -13.70372,-24.1017 -36.68511,-34.45606 l -12.59721,-5.56732 c -36.36168,-15.95674 -60.51768,-35.94651 -60.51768,-78.20558 0,-38.92744 28.79484,-68.5614 73.79582,-68.5614 32.03777,0 55.07023,11.48536 71.66791,41.55767 l -39.23861,25.95164 c -8.6393,-15.95674 -17.95953,-22.243 -32.4293,-22.243 -14.75916,0 -24.11344,9.64418 -24.11344,22.243 0,15.57097 9.36279,21.87476 30.98232,31.51895 l 12.59721,5.55856 c 42.81349,18.91137 66.98651,38.19097 66.98651,81.53721 0,46.73046 -35.63818,72.33139 -83.49907,72.33139 -46.79693,0 -77.03023,-22.9707 -91.82344,-53.07809 z m -178.00367,4.4977 c 7.91581,14.46627 15.11665,26.69685 32.4293,26.69685 16.55512,0 26.99889,-6.67201 26.99889,-32.61488 v -176.4886 h 50.38883 v 177.19 c 0,53.74442 -30.59079,78.20558 -75.24279,78.20558 -40.34511,0 -63.70953,-21.50653 -75.59177,-47.40994 z"
       id="path4"
       style="stroke-width:0.999996" />
  </g>
</svg>
