<svg xmlns="http://www.w3.org/2000/svg" xmlns:svg="http://www.w3.org/2000/svg" id="svg22" version="1.1" viewBox="0 0 240 240"><metadata id="metadata26"/><defs id="defs12"><linearGradient id="a" x1="160.08" x2="100.08" y1="40.08" y2="180" gradientUnits="userSpaceOnUse"><stop id="stop2" offset="0" stop-color="#37aee2"/><stop id="stop4" offset="1" stop-color="#1e96c8"/></linearGradient><linearGradient id="b" x1="123.677" x2="146.503" y1="131.039" y2="174.66" gradientTransform="scale(1.0919068,0.9158291)" gradientUnits="userSpaceOnUse"><stop id="stop7" offset="0" stop-color="#eff7fc"/><stop id="stop9" offset="1" stop-color="#fff"/></linearGradient></defs><g id="g32" transform="matrix(0.90462281,0,0,0.90462281,11.445263,11.445263)" style="stroke-width:1.10543"><circle id="circle14" cx="120" cy="120" r="120" fill="url(#a)" style="fill:url(#a);stroke-width:1.22198"/><path id="path16" fill="#c8daea" d="m 98,175 c -3.888,0 -3.227,-1.468 -4.568,-5.17 L 82,132.207 170,80" style="stroke-width:1.22198"/><path id="path18" fill="#a9c9dd" d="m 98,175 c 3,0 4.325,-1.372 6,-3 l 16,-15.558 -19.958,-12.035" style="stroke-width:1.22198"/><path id="path20" fill="url(#b)" d="m 100.04,144.41 48.36,35.729 c 5.519,3.045 9.501,1.468 10.876,-5.123 l 19.685,-92.763 c 2.015,-8.08 -3.08,-11.746 -8.36,-9.349 l -115.59,44.571 c -7.89,3.165 -7.843,7.567 -1.438,9.528 l 29.663,9.259 68.673,-43.325 c 3.242,-1.966 6.218,-0.91 3.776,1.258" style="fill:url(#b);stroke-width:1.22198"/></g></svg>